<?xml version="1.0" encoding="utf-8"?>
<!-- Generator: Adobe Illustrator 24.3.0, SVG Export Plug-In . SVG Version: 6.00 Build 0)  -->
<svg version="1.1" id="Layer_1" xmlns="http://www.w3.org/2000/svg" xmlns:xlink="http://www.w3.org/1999/xlink" x="0px" y="0px"
	 viewBox="0 0 325 325" enable-background="new 0 0 325 325" xml:space="preserve">
<g id="boğa_1_">
	<g>
		<path fill="#241F14" d="M215.582,281.652c0,0-8.732,3.557-10.674,6.792h5.338c0,0-2.103,4.204,3.395,3.557
			c0,0,6.467,0.971,8.085-2.911c0,0,2.263,3.234,5.82,0.647c0,0-0.647-3.234-3.233-5.175
			C224.314,284.562,220.161,279.485,215.582,281.652z"/>
		<path fill="#241F14" d="M193.914,277.125c0,0-11.966,0.97-11.966,5.821h3.863c0,0-2.102,4.205,3.396,3.558
			c0,0,6.468,0.969,8.085-2.91c0,0,0.906,3.981,4.463,1.394c0,0,0.71-3.982-1.876-5.922
			C199.879,279.065,198.493,274.957,193.914,277.125z"/>
		<path fill="#241F14" d="M113.268,282.09c0,0-7.605,3.558-9.296,6.792h4.648c0,0-1.831,4.204,2.959,3.557
			c0,0,5.633,0.971,7.042-2.911c0,0,1.972,3.235,5.071,0.647c0,0-0.564-3.234-2.817-5.175
			C120.874,285.001,117.256,279.923,113.268,282.09z"/>
		<path fill="#241F14" d="M138.288,282.09c0,0-8.731,3.558-10.671,6.792h5.335c0,0-2.102,4.204,3.396,3.557
			c0,0,6.469,0.971,8.086-2.911c0,0,2.264,3.235,5.82,0.647c0,0-0.647-3.234-3.234-5.175
			C147.02,285.001,142.867,279.923,138.288,282.09z"/>
		<path fill="#7A5422" d="M235.31,188.835c0,0,9.701,17.788,22.637,12.289c0,0,10.996-3.234,7.439-19.404
			c0,0-1.617-12.289,11.643-11.642c0,0,13.905,0,15.522,3.557l-2.586,1.941c0,0-12.288-4.484-18.111-1.941
			c0,0-3.557,3.558-2.586,8.085c0,0,1.94,19.404-10.996,23.285c0,0-15.846,5.821-25.873-13.259L235.31,188.835z"/>
		<path fill="#7A5422" d="M110.153,249.636c0,0-1.618,7.438,2.911,10.026c0,0-1.617,7.438,0,9.702c0,0-0.833,13.238-0.833,13.242
			c0,0,1.6,3.022,5.044,3.017c3.744-0.004,0.778-4.678,0.265-6.789c-0.887-3.653-1.052-7.466-0.595-11.192
			c0,0,2.91-1.188,0.97-5.716c0,0,5.497-7.438,5.821-16.493L110.153,249.636z"/>
		<path fill="#593918" d="M181.625,238.316c0,0,3.558,12.936,15.2,19.404c0,0,2.586,6.145,0,13.906l-6.655,6.053
			c2.059,1.137,3.349,1.685,5.707,1.582c0.277-0.012,3.992-0.102,4.001-0.196c0,0,1.473-14.23,1.151-20.213
			c0,0,7.761-5.013,10.671-14.715C211.701,244.138,202.969,238.316,181.625,238.316z"/>
		<path fill="#7A5422" d="M101.097,185.602c0,0,9.703-38.485,30.4-42.69c0,0,22.638-6.144,46.247,9.379
			c0,0,28.136,21.021,36.867,23.285c0,0,20.699,5.174,21.992,20.051c0,0,0.647,36.221-13.907,51.421c0,0,0.971,11.319,0,15.524
			c0,0-1.617,15.523-0.647,16.817c0,0,2.587,5.498,0,5.498c0,0-6.468,1.94-7.762,0c0,0-1.941-2.911,2.91-4.205l2.264-17.463
			c0,0-5.174-3.234-6.468-11.643c0,0-10.025,0.97-17.463-8.732c0,0-20.697-0.97-31.693,5.175c0,0-6.144,3.557-9.702,1.94
			c0,0-6.468,3.88-11.642,6.145l-0.324,23.932c0,0,5.175,3.019,4.851,5.714c0,0-3.88,6.252-10.996-3.126l2.264-1.617v-9.702
			c0,0-2.264-3.234-0.647-6.145l0.516-6.77c0,0-5.69-1.315-10.541-5.196c0,0-23.286,3.557-23.609-10.349
			c-0.323-13.906-0.323-13.906-0.323-13.906l0,0c0,0-21.992-21.345-8.409-37.191L101.097,185.602z"/>
		<g>
			<path fill="#604017" d="M191.004,231.848c1.011,2.71,2.162,5.141,3.594,7.317c1.429,2.163,3.063,4.085,5.031,5.639
				c0.464,0.419,1.019,0.731,1.52,1.109c0.257,0.181,0.496,0.391,0.768,0.552c0.278,0.153,0.56,0.299,0.834,0.462
				c0.56,0.305,1.087,0.677,1.676,0.946c0.594,0.256,1.186,0.532,1.781,0.818c0.583,0.32,1.218,0.516,1.847,0.75
				c0.63,0.232,1.263,0.482,1.903,0.746c1.302,0.439,2.641,0.802,4.007,1.388c-1.408,0.303-2.853,0.458-4.315,0.552
				c-0.724-0.027-1.455-0.067-2.188-0.125c-0.734-0.057-1.476-0.102-2.191-0.309c-0.722-0.171-1.448-0.352-2.171-0.553
				c-0.727-0.191-1.395-0.563-2.098-0.847c-0.349-0.149-0.69-0.316-1.035-0.476c-0.338-0.172-0.65-0.399-0.977-0.597
				c-0.628-0.437-1.3-0.815-1.883-1.315c-2.417-1.915-4.232-4.544-5.314-7.345C190.727,237.755,190.36,234.7,191.004,231.848z"/>
		</g>
		<g>
			<path fill="#604017" d="M163.837,236.376c-0.118,2.552-0.94,4.973-2.041,7.231c-1.126,2.251-2.623,4.332-4.41,6.148
				c-1.765,1.837-3.904,3.338-6.215,4.423c-0.586,0.26-1.171,0.512-1.763,0.738c-0.616,0.183-1.233,0.348-1.848,0.499
				c-0.614,0.153-1.238,0.261-1.88,0.294c-0.635,0.05-1.263,0.087-1.893,0.07c2.038-1.563,3.993-2.761,5.736-4.28
				c1.77-1.444,3.449-2.928,5.02-4.556c1.586-1.607,3.12-3.287,4.632-5.055L163.837,236.376z"/>
		</g>
		<path opacity="0.5" fill="#4B2D15" d="M211.701,174.283c0,0,22.532,5.424,24.906,20.486c0,0,1.08,35.928-13.91,52.28
			c0,0,0.75,8.732,0.217,14.23c0,0,0.107-10.026-9.92-9.702c0,0-7.655,0.927-16.493-7.115c0,0,16.171,5.821,28.782-17.14
			c0,0,13.908-24.255-4.526-40.749c0,0-10.799-12.523-15.327-15.434L211.701,174.283z"/>
		<path fill="#6B441E" d="M285.114,169.755c0,0,12.289-3.557,15.847,6.145c0,0,1.94,6.467-2.911,10.349
			c0,0-0.971,9.378,11.643,6.467c0,0-11.965,6.791-19.404-5.821c0,0-7.117,2.91-9.379-11.32
			C280.909,175.576,281.818,170.316,285.114,169.755z"/>
		<g>
			<g>
				<path fill="#4E2E13" d="M287.905,168.138c1.994-0.476,4.013-0.311,5.959,0.197c1.936,0.536,3.851,1.463,5.438,2.969
					c1.583,1.471,2.794,3.624,2.935,5.868c0.19,2.234-0.598,4.325-1.925,5.842c-0.258-2.026-0.502-3.759-1.149-5.179
					c-0.592-1.429-1.496-2.554-2.61-3.629c-1.115-1.072-2.482-2.034-3.944-3.001C291.138,170.235,289.574,169.288,287.905,168.138z"
					/>
			</g>
			<g>
				<path fill="#4E2E13" d="M282.203,172.666c0.613,1.481,1.026,2.783,1.415,4.038l1.103,3.553c0.372,1.134,0.792,2.186,1.274,3.305
					c0.47,1.148,1.148,2.197,1.909,3.657c-1.582-0.001-3.178-0.616-4.376-1.706c-1.202-1.074-2.121-2.491-2.603-3.998
					c-0.485-1.507-0.623-3.082-0.434-4.595C280.701,175.412,281.172,173.925,282.203,172.666z"/>
			</g>
			<g>
				<path fill="#4E2E13" d="M287.905,172.989c1.664-0.385,3.366-0.032,4.872,0.69c1.506,0.735,2.86,1.896,3.792,3.348
					c0.917,1.445,1.547,3.106,1.591,4.781c0.102,0.826-0.061,1.662-0.178,2.461c-0.192,0.8-0.496,1.578-0.902,2.304
					c-0.462-0.748-0.739-1.452-1.055-2.121c-0.372-0.654-0.564-1.315-0.921-1.901c-0.156-0.299-0.301-0.595-0.429-0.892
					c-0.179-0.275-0.323-0.558-0.477-0.835c-0.133-0.287-0.304-0.548-0.477-0.807c-0.163-0.263-0.289-0.549-0.489-0.786
					c-0.66-1.041-1.426-2.012-2.3-3.018C290.054,175.194,289.078,174.192,287.905,172.989z"/>
			</g>
			<g>
				<path fill="#4E2E13" d="M287.905,175.9c1.093,2.555,2.125,4.957,3.315,7.19c1.185,2.223,2.541,4.245,4.187,5.802
					c1.634,1.583,3.61,2.581,5.924,3.12c2.33,0.483,4.924,0.477,7.713,0.382c-2.238,1.661-4.995,2.668-7.998,2.751
					c-1.499-0.002-3.039-0.273-4.49-0.84c-1.457-0.561-2.779-1.452-3.892-2.503c-2.235-2.127-3.608-4.843-4.363-7.571
					C287.573,181.485,287.353,178.651,287.905,175.9z"/>
			</g>
		</g>
	</g>
	<g>
		<g>
			<path fill="#DEB789" d="M86.881,145.455c0,0-26.359,5.858-52.927,5.23c0,0-6.066-1.882-3.556-5.23
				c0,0,33.472-35.772,38.701-49.579c0,0,3.765-5.857-2.72-12.134c0,0-22.383-21.375-35.145-29.534l-1.445,1.083
				c0,0,26.567,27.196,28.545,33.68c0,0,0.723,5.23-1.786,7.95c0,0-25.313,33.68-36.192,48.115c0,0-8.368,10.46-3.557,12.761
				c0,0,3.975,5.021,64.95-1.538L86.881,145.455z"/>
			<g>
				<path fill="#F9E4C7" d="M71.4,151.94c-2.837,0.687-5.688,1.228-8.54,1.76c-2.855,0.5-5.71,1.001-8.574,1.406
					c-2.861,0.434-5.726,0.838-8.595,1.186c-2.869,0.357-5.74,0.686-8.616,0.974l-0.192-3.967c3.26-0.026,6.52,0.003,9.78,0.058
					c3.26,0.061,6.52,0.148,9.78,0.313l4.89,0.248l4.89,0.344c3.26,0.28,6.52,0.554,9.78,1.025c-3.26,0.471-6.52,0.745-9.78,1.025
					l-4.89,0.344l-4.89,0.248c-3.26,0.164-6.52,0.251-9.78,0.313c-3.26,0.055-6.52,0.084-9.78,0.058l-0.192-3.967
					c2.877-0.27,5.759-0.498,8.642-0.699c2.883-0.21,5.772-0.364,8.663-0.487c2.889-0.153,5.786-0.21,8.684-0.268
					C65.582,151.828,68.484,151.811,71.4,151.94z"/>
			</g>
			<path fill="#961F20" d="M44.204,68.263c0,0,7.113,3.765,8.786,7.949C52.99,76.212,45.46,71.819,44.204,68.263z"/>
			<path fill="#F9DBBF" d="M63.241,81.023c0,0,6.485,9.414,5.439,12.133c0,0-5.439,9.996-7.95,10.228
				C60.73,103.384,68.89,95.249,63.241,81.023z"/>
			<path fill="#CFA479" d="M50.689,76.631c0,0,8.368,6.903,10.251,13.597C60.94,90.228,51.526,78.513,50.689,76.631z"/>
			<path fill="#D2AB80" d="M59.685,96.086l-31.589,41.839C28.097,137.924,59.476,104.035,59.685,96.086z"/>
			<path fill="#D2AB80" d="M20.566,146.292c0,0-4.394,9.623,6.484,9.623c0,0-6.276,4.208-10.042-0.604
				C17.009,155.312,14.917,153.614,20.566,146.292z"/>
			<polygon fill="#961F20" points="26.44,49.538 44.204,63.844 43.786,66.589 40.927,67.077 26.005,51.741 			"/>
			<g>
				<path fill="#CC404E" d="M31.234,55.292c1.122,0.395,2.109,0.951,3.065,1.543c0.948,0.602,1.846,1.265,2.701,1.979
					c0.855,0.714,1.665,1.481,2.426,2.308c0.753,0.836,1.473,1.711,2.058,2.747c-1.123-0.393-2.111-0.948-3.067-1.541
					c-0.948-0.602-1.846-1.265-2.7-1.981c-0.853-0.716-1.664-1.483-2.424-2.31C32.542,57.2,31.821,56.326,31.234,55.292z"/>
			</g>
			<g>
				<g>
					<path fill="#AB845B" d="M68.262,147.756c-0.285,1.133-0.328,1.91-0.289,2.518c0.037,0.599,0.13,1.013,0.184,1.537
						c0.033,0.514,0.14,1.141,0.162,1.905c0.049,0.38,0.049,0.799,0.047,1.263c-0.005,0.471,0.009,0.95-0.104,1.563
						c-0.594-0.075-1.063-0.284-1.549-0.502c-0.455-0.243-0.837-0.575-1.209-0.921c-0.67-0.758-1.218-1.71-1.324-2.882
						c-0.137-1.138,0.19-2.455,0.987-3.36C65.95,147.979,67.098,147.476,68.262,147.756z"/>
				</g>
				<g>
					<path fill="#AB845B" d="M55.292,150.267c-0.687,1.17-1.457,1.997-2.246,2.74c-0.792,0.729-1.608,1.34-2.417,1.876
						c-0.804,0.536-1.618,0.998-2.296,1.394c-0.344,0.203-0.621,0.342-0.882,0.541c-0.304,0.196-0.424,0.696-0.318,1.397
						c-0.682-0.024-1.405-0.544-1.646-1.448c-0.224-0.891,0.038-1.752,0.345-2.399c0.661-1.31,1.605-2.161,2.592-2.823
						c0.997-0.653,2.074-1.093,3.211-1.339C52.778,149.981,53.975,149.906,55.292,150.267z"/>
				</g>
				<g>
					<path fill="#AB845B" d="M33.954,149.849c-1.364,1.046-2.729,1.755-4.095,2.387c-1.365,0.62-2.727,1.133-4.071,1.593
						l-3.924,1.301c-0.626,0.219-1.228,0.446-1.777,0.742c-0.544,0.299-1.072,0.676-1.403,1.507
						c-0.574-0.68-0.542-1.836-0.151-2.711c0.384-0.898,1.002-1.603,1.645-2.194c1.314-1.171,2.805-1.908,4.317-2.43
						c1.517-0.514,3.076-0.794,4.654-0.861C30.728,149.136,32.33,149.258,33.954,149.849z"/>
				</g>
				<g>
					<path fill="#AB845B" d="M26.842,135.414c0.643-1.03,1.512-1.623,2.444-2.025c0.939-0.382,1.982-0.53,3.073-0.374
						c1.07,0.155,2.27,0.641,3.097,1.674c0.831,1.015,1.005,2.429,0.381,3.444c-1.039-0.692-1.735-0.891-2.308-0.958
						c-0.554-0.08-1.111-0.101-1.763-0.205c-0.647-0.098-1.374-0.243-2.185-0.461C28.764,136.28,27.897,135.989,26.842,135.414z"/>
				</g>
				<g>
					<path fill="#AB845B" d="M44.204,113.658c1.109-0.381,2.091-0.305,3.001-0.077c0.904,0.244,1.729,0.695,2.432,1.339
						c0.698,0.642,1.294,1.47,1.583,2.502c0.28,1.004,0.255,2.25-0.53,3.139c-0.903-0.761-1.549-1.08-2.134-1.467
						c-0.568-0.375-1.115-0.753-1.62-1.225c-0.505-0.47-0.994-1.016-1.463-1.676C45.01,115.518,44.573,114.758,44.204,113.658z"/>
				</g>
				<g>
					<path fill="#AB845B" d="M56.756,96.086c0.933-0.802,1.879-1.187,2.822-1.437c0.945-0.231,1.888-0.297,2.83-0.196
						c0.942,0.103,1.876,0.355,2.788,0.838c0.455,0.25,0.895,0.528,1.316,0.936c0.376,0.384,0.855,0.902,0.913,1.533
						c-0.65,0.06-1.016,0.2-1.513,0.337c-0.44,0.115-0.894,0.213-1.328,0.279c-0.869,0.123-1.742,0.153-2.605,0.054
						c-0.864-0.099-1.733-0.301-2.601-0.653C58.509,97.41,57.639,96.938,56.756,96.086z"/>
				</g>
				<g>
					<path fill="#AB845B" d="M52.99,81.442c0.332-1.168,1.042-1.967,1.845-2.586c0.815-0.603,1.776-0.991,2.795-1.14
						c1.014-0.161,2.109-0.016,3.093,0.394c0.985,0.412,1.864,1.186,2.31,2.286c-1.159,0.413-1.949,0.604-2.712,0.834
						c-0.75,0.214-1.422,0.336-2.139,0.447c-0.713,0.101-1.456,0.144-2.289,0.13C55.051,81.783,54.157,81.706,52.99,81.442z"/>
				</g>
			</g>
		</g>
		<g>
			<path fill="#4B2D15" d="M81.023,202.565c3.347,15.062,9.137,23.711,22.661,26.372c0,0,3.086,7.438,10.581,3.293
				c3.39-1.875,2.21,4.145,11.409,4.145c5.763,0,19.036-15.886,26.683-23.246l-18.2-27.509
				C134.158,185.621,77.998,188.955,81.023,202.565z"/>
			<path fill="#4D2F15" d="M138.761,175.162c0,0,33.054,33.89,15.899,42.466c0,0,0.628,19.455-17.362,4.812
				c0,0-4.813,10.878-12.344-3.975c0,0-17.571,6.067-15.061-5.857c0,0-8.996-26.986,3.555-37.446
				C113.448,175.162,125.164,167.421,138.761,175.162z"/>
			<path fill="#7A5422" d="M132.485,166.794c0,0,24.267,24.894-2.719,30.542c0,0-26.359,16.945-33.68,18.41c0,0,0,10.25-4.394,1.464
				c0,0-3.765,11.715-4.184,0.628c0,0-7.112,9.413-3.137-0.21c0,0-8.159,5.23-3.556-1.045c0,0-2.929,1.882-6.904-10.669
				c0,0-7.531,2.719-8.577-7.113c0,0-13.389-3.765-6.486-7.531c0,0,9.205-2.092,16.317,0c0,0,0.837-9.623,3.766-19.665
				c0,0-5.21,7.531-22.06-2.719c0,0,17.039-12.133,23.525-8.368c0,0-7.322-8.577-5.649-15.271h7.74c0,0-3.138-5.858,5.021-5.021
				c0,0-9.413-5.858,3.557-2.929c0,0,3.765,1.882,5.229,4.602c0,0,6.903-12.97,10.042-13.598c0,0,1.255,3.347-1.256,5.858
				c0,0,2.929-5.229,7.322-5.858c0,0,0,3.766-1.045,4.603c0,0,1.883-4.812,6.067-4.603c0,0,1.045,2.929-0.628,4.394
				c0,0,3.348-2.51,7.95,1.045c0,0,8.158-9.204,13.597-3.347c0,0,7.702,10.878,4.165,18.2l-2.282,1.883
				c0,0,5.648,11.715,16.317,7.74c0,0-4.393,12.761-14.853,8.786L132.485,166.794z"/>
			<g>
				<g>
					<path fill="#604017" d="M124.745,136.879c0.596-1.399,1.346-2.737,2.226-4.001c0.873-1.272,1.897-2.461,3.158-3.495
						c0.635-0.514,1.354-0.967,2.181-1.295c0.821-0.327,1.785-0.515,2.772-0.391c0.987,0.111,1.924,0.566,2.649,1.142
						c0.71,0.585,1.329,1.251,1.79,1.955c0.508,0.708,0.853,1.335,1.237,2.022c0.374,0.673,0.734,1.353,1.082,2.042
						c0.702,1.373,1.335,2.788,1.868,4.26c0.527,1.474,0.987,2.995,1.201,4.626c0.108,0.813,0.164,1.654,0.094,2.533
						c-0.075,0.87-0.251,1.809-0.751,2.681l-0.168,0.292l-0.187,0.126c-1.884,1.265-3.779,2.515-5.71,3.718
						c-1.938,1.193-3.88,2.381-5.911,3.45c1.596-1.65,3.279-3.182,4.968-4.708c1.695-1.517,3.426-2.986,5.168-4.44l-0.355,0.418
						c0.398-0.938,0.366-2.293,0.083-3.618c-0.273-1.336-0.709-2.696-1.22-4.038c-0.522-1.341-1.101-2.677-1.725-3.999
						c-0.616-1.3-1.343-2.663-2.01-3.832c-0.663-1.133-1.523-1.982-2.507-2.204c-0.995-0.278-2.269,0.152-3.459,0.832
						C128.835,132.402,126.721,134.606,124.745,136.879z"/>
				</g>
				<g>
					<path fill="#604017" d="M132.903,155.706c0.408-1.096,1.163-1.915,2.044-2.567c0.893-0.635,1.96-1.096,3.151-1.215
						c1.184-0.12,2.491,0.165,3.501,0.863c1.043,0.675,1.622,1.807,1.764,2.918c-1.135-0.351-1.931-0.707-2.738-0.769
						c-0.779-0.097-1.469-0.088-2.236-0.027c-0.765,0.072-1.587,0.221-2.483,0.376C135.004,155.44,134.051,155.609,132.903,155.706z
						"/>
				</g>
				<g>
					<path fill="#604017" d="M138.552,185.621c1.064,0.64,1.585,2.088,1.363,3.428c-0.216,1.35-1.006,2.524-1.929,3.319
						c-0.932,0.801-1.996,1.346-3.098,1.652c-1.104,0.309-2.256,0.394-3.449,0.179c0.78-0.964,1.605-1.62,2.379-2.281
						c0.784-0.637,1.513-1.231,2.185-1.799c0.671-0.579,1.213-1.137,1.675-1.789C138.131,187.674,138.48,186.841,138.552,185.621z"
						/>
				</g>
				<g>
					<path fill="#604017" d="M124.745,180.182c-0.751-0.197-1.517-0.312-2.278-0.326c-0.378-0.032-0.758,0.005-1.131,0.003
						c-0.372,0.054-0.744,0.074-1.104,0.155c-1.449,0.287-2.748,0.977-3.712,1.992c-0.994,0.997-1.589,2.328-2.086,3.661
						c-0.179,0.706-0.383,1.402-0.541,2.111l-0.315,2.186l0.008-0.236c0.205,2.388,0.072,4.666-0.235,6.995
						c-0.315,2.314-0.901,4.625-1.897,6.824c-0.97,2.196-2.398,4.304-4.367,5.884c-1.96,1.587-4.382,2.568-6.811,2.901l-0.208,0.029
						l-0.156-0.02c-2.188-0.281-4.406-0.516-6.612-0.75c-2.207-0.26-4.418-0.465-6.629-0.677c-2.21-0.212-4.423-0.38-6.636-0.499
						c-1.106-0.042-2.213-0.081-3.317-0.054c-0.552,0.015-1.103,0.048-1.649,0.115c-0.539,0.08-1.102,0.154-1.576,0.461
						c0.408-0.4,0.969-0.597,1.5-0.788c0.54-0.188,1.097-0.313,1.653-0.42c1.114-0.22,2.238-0.364,3.362-0.464
						c2.249-0.216,4.499-0.271,6.747-0.297c2.248-0.016,4.491,0.057,6.733,0.133c2.243,0.106,4.472,0.255,6.722,0.431l-0.364,0.009
						c1.992-0.37,3.856-1.128,5.366-2.4c1.496-1.276,2.706-2.93,3.574-4.813c0.884-1.874,1.439-3.941,1.852-6.042
						c0.394-2.094,0.569-4.31,0.582-6.4l0.001-0.206l0.007-0.03l0.533-2.378c0.243-0.782,0.514-1.564,0.811-2.326
						c0.737-1.488,1.604-2.962,2.942-4.049c1.337-1.063,2.996-1.669,4.624-1.723C121.766,179.101,123.349,179.503,124.745,180.182z"
						/>
				</g>
				<g>
					<path fill="#604017" d="M118.469,178.09c-1.597,0.035-3.038,0.168-4.146,0.65c-1.108,0.466-1.807,1.178-2.366,2.206
						l-0.227,0.372c-0.065,0.136-0.106,0.293-0.164,0.437l-0.36,0.88c-0.146,0.654-0.416,1.273-0.556,1.971
						c-0.134,0.694-0.379,1.386-0.527,2.118c-0.177,0.73-0.345,1.471-0.648,2.243c-0.362-0.72-0.589-1.471-0.825-2.233
						c-0.231-0.76-0.264-1.558-0.349-2.355c-0.05-0.397-0.02-0.806,0.019-1.215c0.027-0.411,0.081-0.82,0.128-1.232
						c0.087-0.414,0.233-0.827,0.352-1.242c0.071-0.206,0.129-0.411,0.217-0.614l0.326-0.602c0.235-0.393,0.436-0.797,0.792-1.137
						c0.338-0.34,0.628-0.716,1.067-0.955c0.407-0.268,0.811-0.529,1.28-0.651c0.227-0.073,0.449-0.16,0.675-0.211l0.687-0.082
						C115.668,176.296,117.305,176.974,118.469,178.09z"/>
				</g>
				<g>
					<path fill="#604017" d="M99.851,186.667c-0.417-0.593-0.772-1.215-1.087-1.858c-0.313-0.646-0.604-1.303-0.809-2.034
						c-0.098-0.376-0.205-0.733-0.202-1.262c0.009-0.146,0.006-0.274,0.064-0.487c0.02-0.088,0.047-0.19,0.131-0.342
						c0.075-0.134,0.135-0.256,0.336-0.423c0.178-0.155,0.375-0.257,0.606-0.3c0.111-0.024,0.235-0.039,0.335-0.039
						c0.074,0.004,0.15,0.013,0.225,0.025c0.354,0.06,0.453,0.137,0.644,0.221c0.555,0.311,0.806,0.573,1.118,0.859
						c0.278,0.277,0.541,0.549,0.781,0.833l-2.466,0.985c-0.126-0.755-0.202-1.468-0.248-2.217
						c-0.034-0.746-0.054-1.498,0.036-2.308c0.046-0.406,0.101-0.824,0.255-1.315c0.081-0.246,0.187-0.522,0.391-0.844
						c0.203-0.315,0.642-0.807,1.36-0.947c0.74-0.121,1.176,0.144,1.487,0.313c0.288,0.187,0.499,0.378,0.66,0.552
						c0.347,0.356,0.558,0.699,0.781,1.039l-2.35,0.829c0.018-0.531,0.067-0.948,0.248-1.552c0.038-0.134,0.118-0.327,0.219-0.512
						c0.029-0.07,0.155-0.236,0.252-0.342c0.053-0.058,0.108-0.113,0.164-0.164c0.088-0.065,0.19-0.127,0.295-0.178
						c0.219-0.106,0.435-0.159,0.63-0.138c0.187,0.006,0.446,0.056,0.545,0.113c0.185,0.1,0.446,0.258,0.526,0.363
						c0.104,0.111,0.201,0.226,0.295,0.34l0.196,0.313c0.137,0.209,0.227,0.409,0.316,0.611c0.2,0.401,0.311,0.804,0.451,1.205
						l-1.09,0.026c0.49-0.651,1.019-1.284,1.598-1.892c-0.119,0.831-0.287,1.639-0.494,2.427l-0.242,0.919l-0.849-0.893
						c-0.272-0.286-0.521-0.603-0.783-0.86c-0.131-0.133-0.256-0.273-0.38-0.369l-0.181-0.155c-0.051-0.024-0.1-0.046-0.142-0.073
						c-0.058-0.044,0.002,0.051,0.021,0.041c0.012,0.008,0.162,0.076,0.252,0.064c0.091-0.011,0.219-0.012,0.349-0.07
						c0.061-0.028,0.118-0.068,0.161-0.11c0.026-0.012,0.05-0.027,0.072-0.046c0.041-0.022,0.085-0.122,0.086-0.093
						c0.02-0.001,0.022-0.01,0.022,0.054c-0.006,0.177,0.018,0.57,0.058,0.839l0.61,4.076l-2.959-3.247
						c-0.203-0.222-0.42-0.443-0.587-0.572c-0.087-0.077-0.156-0.104-0.166-0.103c0.027,0.028-0.01,0.002,0.101,0.055
						c0.047,0.017,0.079,0.017,0.142,0.025c0.078,0.013,0.161,0.009,0.239-0.01c0.37-0.063,0.535-0.298,0.55-0.317
						c0.022-0.02-0.003,0.033-0.022,0.126c-0.045,0.186-0.093,0.469-0.114,0.765c-0.1,1.201-0.053,2.613-0.023,3.926l0.108,4.759
						l-2.574-3.774l-0.526-0.771l-0.408-0.529c0.035,0.011-0.01-0.016,0.169,0.026c0.033,0.003,0.067,0.002,0.099-0.003
						c0.058,0.003,0.139,0,0.208-0.018c0.141-0.041,0.264-0.101,0.378-0.194c0.122-0.124,0.144-0.166,0.176-0.225
						c0.033-0.081,0.032-0.106,0.032-0.106c-0.002-0.05-0.019-0.005-0.034,0.02c-0.061,0.159-0.09,0.494-0.099,0.8
						C99.764,183.815,99.862,185.232,99.851,186.667z"/>
				</g>
				<g>
					<path fill="#604017" d="M102.779,168.049c0.918,0.443,1.809,0.919,2.671,1.432c0.875,0.496,1.711,1.039,2.557,1.571
						l-1.517,1.181c-1.131-2.006-1.832-4.114-2.171-6.389c-0.324-2.252-0.189-4.689,0.726-6.937
						c0.451-1.118,1.101-2.167,1.902-3.063c0.801-0.901,1.772-1.607,2.774-2.177c2.055-1.074,4.267-1.566,6.447-1.517
						c-1.959,0.951-3.797,1.948-5.277,3.234c-1.486,1.272-2.551,2.808-3.124,4.547c-0.594,1.732-0.721,3.652-0.583,5.603
						c0.136,1.939,0.545,3.977,1.093,5.864l1.157,3.99l-2.675-2.81c-0.689-0.724-1.387-1.435-2.047-2.195
						C104.039,169.64,103.395,168.861,102.779,168.049z"/>
				</g>
				<g>
					<path fill="#604017" d="M82.069,158.426c1.124,0.105,2.073,0.578,2.905,1.216c0.822,0.647,1.527,1.519,1.936,2.641
						c0.42,1.096,0.414,2.573-0.273,3.674c-0.182,0.261-0.376,0.508-0.575,0.731c-0.236,0.185-0.48,0.353-0.722,0.502
						c-0.49,0.289-1.056,0.396-1.596,0.441c0.359-1.087,0.736-1.855,0.698-2.537c0.004-0.65-0.135-1.148-0.355-1.8
						c-0.227-0.639-0.552-1.366-0.925-2.155C82.796,160.337,82.405,159.491,82.069,158.426z"/>
				</g>
			</g>
			<g>
				<path opacity="0.7" fill="#996B3A" d="M113.029,133.74c0,0-4.81,6.904-5.02,11.297l14.046-7.74L113.029,133.74z"/>
				<path opacity="0.7" fill="#996B3A" d="M129.348,160.727c0,0,5.648-8.368,13.807-5.439c0,0,1.883,7.746,12.97,2.409
					c0,0-6.903,13.281-15.063,9.097C141.062,166.794,131.23,163.865,129.348,160.727z"/>
				<path opacity="0.7" fill="#996B3A" d="M129.556,172.023c0,0,8.996,5.857,9.623,10.669c0,0-2.302-2.719-4.811-3.138
					C134.368,179.554,129.348,177.253,129.556,172.023z"/>
			</g>
			<g opacity="0.7">
				<path fill="#996B3A" d="M116.167,178.926c-0.629,1.086-0.977,1.899-1.291,2.644l-0.825,2.056
					c-0.285,0.669-0.553,1.395-0.946,2.191c-0.187,0.403-0.372,0.831-0.644,1.278c-0.247,0.456-0.483,0.93-0.897,1.454
					c-0.471-0.436-0.764-0.923-1.067-1.426c-0.233-0.513-0.419-1.049-0.524-1.603c-0.166-1.109-0.095-2.297,0.375-3.405
					c0.455-1.102,1.253-2.113,2.298-2.747C113.682,178.748,114.966,178.445,116.167,178.926z"/>
			</g>
			<path opacity="0.7" fill="#996B3A" d="M109.892,166.584c0,0-2.091-14.225,9.832-12.76
				C119.725,153.824,112.612,159.472,109.892,166.584z"/>
			<g>
				<path fill="#674419" d="M110.52,167.631c0.243-1.708,0.779-3.335,1.447-4.902c0.676-1.564,1.489-3.08,2.5-4.482
					c0.999-1.405,2.201-2.705,3.639-3.744c1.419-1.017,3.225-1.785,4.965-1.516c-1.625,0.581-2.837,1.594-3.957,2.708
					c-1.104,1.136-2.077,2.408-3.022,3.718C114.191,162.037,112.516,164.851,110.52,167.631z"/>
			</g>
			<g>
				<path fill="#D2AE9E" d="M109.682,169.513c1.125,0.222,2.221,0.517,3.316,0.814l-0.491,0.798
					c-0.939-0.794-1.455-1.89-1.597-3.072c-0.186-1.195,0.152-2.334,0.538-3.396c0.885-2.095,2.388-3.71,3.961-5.112l1.202-1.034
					c0.415-0.325,0.858-0.603,1.285-0.906l1.294-0.884l1.358-0.769c1.798-1.043,3.717-1.843,5.663-2.547
					c-1.592,1.35-3.286,2.479-4.865,3.754l-1.206,0.915l-1.161,0.957c-0.792,0.619-1.521,1.289-2.248,1.955l-0.549,0.497
					l-0.493,0.539c-0.326,0.358-0.688,0.694-0.996,1.061l-0.867,1.136l-0.73,1.19c-0.349,0.825-0.719,1.678-0.704,2.55
					c-0.015,0.845,0.228,1.79,0.745,2.451l1.444,1.845l-1.935-1.047C111.647,170.669,110.65,170.128,109.682,169.513z"/>
			</g>
			<path fill="#181619" d="M112.193,167.421c0,0,2.361-10.042,9.862-9.205c0,0,3.348,8.996-4.931,9.205H112.193z"/>
			<path fill="#2F4454" d="M122.055,159.681c0,0,1.852,7.74-5.049,6.694C117.006,166.375,121.876,165.957,122.055,159.681z"/>
			<path fill="#E8DCB1" d="M120.143,163.028c0,1.039-0.844,1.882-1.883,1.882c-1.04,0-1.883-0.843-1.883-1.882
				c0-1.04,0.843-1.883,1.883-1.883C119.299,161.145,120.143,161.988,120.143,163.028z"/>
			<path fill="#E8DCB1" d="M120.842,160.308c0,0.387-0.312,0.7-0.699,0.7s-0.701-0.313-0.701-0.7s0.314-0.7,0.701-0.7
				S120.842,159.922,120.842,160.308z"/>
			<g>
				<g>
					<path fill="#C62E2A" d="M124.954,161.982c0.572,1.326,0.458,2.78-0.058,4.085c-0.528,1.301-1.516,2.5-2.795,3.235
						c-1.27,0.73-2.736,1.085-4.106,0.948c-0.687-0.029-1.346-0.254-1.976-0.463c-0.618-0.303-1.208-0.628-1.734-1.111
						c0.639-0.399,1.213-0.606,1.761-0.853c0.533-0.295,1.056-0.44,1.518-0.688c0.956-0.405,1.729-0.856,2.489-1.268
						c0.757-0.426,1.457-0.933,2.245-1.554C123.095,163.685,123.906,162.941,124.954,161.982z"/>
				</g>
				<g>
					<path fill="#C62E2A" d="M126.21,165.538c0.972,0.993,1.332,2.472,0.883,3.976c-0.208,0.754-0.689,1.462-1.283,2.021
						c-0.601,0.537-1.317,0.955-2.025,1.155l-0.538,0.167l-0.521,0.07c-0.348,0.026-0.7,0.075-1.039,0.071
						c-0.65-0.075-1.324-0.114-1.917-0.337c-1.21-0.39-2.289-1.063-3.182-2.102c0.649-0.321,1.23-0.473,1.797-0.637
						c0.565-0.136,1.088-0.314,1.596-0.399c0.512-0.092,0.954-0.251,1.414-0.308l0.609-0.172l0.301-0.061l0.252-0.097
						c0.709-0.225,1.177-0.385,1.769-0.844C124.932,167.578,125.546,166.737,126.21,165.538z"/>
				</g>
			</g>
			<g>
				<path fill="#694519" d="M123.28,157.38c0.335-0.104,0.681-0.002,0.957,0.173c0.287,0.174,0.494,0.446,0.642,0.734
					c0.26,0.593,0.266,1.267-0.134,1.814c-0.213-0.274-0.339-0.517-0.456-0.747c-0.128-0.224-0.208-0.442-0.314-0.64
					C123.78,158.302,123.634,157.941,123.28,157.38z"/>
			</g>
			<g>
				<path fill="#694519" d="M125.372,155.916c0.663,0.213,1.042,0.758,1.247,1.327c0.183,0.578,0.193,1.245-0.2,1.811
					c-0.215-0.279-0.338-0.529-0.457-0.773c-0.118-0.243-0.203-0.482-0.291-0.721C125.52,157.066,125.392,156.592,125.372,155.916z"
					/>
			</g>
			<path fill="#5D3B17" d="M108.428,198.382c0,0,2.511,5.648-5.439,9.623L108.428,198.382z"/>
			<path fill="#661519" d="M111.983,201.729c0,0,0.688-22.175,10.071-20.292c0,0,12.732,2.928,13.149,6.694
				C135.204,188.131,127.883,196.081,111.983,201.729z"/>
			<path fill="#F2E1C2" d="M113.448,196.499c0,0,4.034-15.69,8.607-14.225l7.083,2.928c0,0-5.857,4.603-9.205,1.465l1.361,2.671
				h-3.243l-0.209,3.604C117.842,192.943,112.784,198.805,113.448,196.499z"/>
			<g>
				<path fill="#851A19" d="M115.331,196.29c0.319-1.689,1.063-3.113,1.945-4.419c0.895-1.298,1.978-2.455,3.236-3.433
					c1.252-0.978,2.671-1.801,4.276-2.274c1.577-0.46,3.396-0.639,4.978,0.085c-1.422,0.954-2.461,1.839-3.552,2.718
					c-1.08,0.863-2.132,1.764-3.242,2.623c-1.11,0.857-2.262,1.705-3.497,2.514C118.228,194.904,116.919,195.668,115.331,196.29z"/>
			</g>
			<path fill="#F2E1C2" d="M115.749,198.591l6.306-5.439h1.226v-2.092l2.929,1.255l2.509-5.229l4.813,2.301
				C133.532,189.386,118.26,198.8,115.749,198.591z"/>
			<polygon fill="#5D3C17" points="77.258,211.143 91.483,212.398 93.366,215.118 81.86,215.118 			"/>
			<polygon fill="#986C38" points="88.764,141.481 91.692,145.247 94.829,143.363 			"/>
			<path opacity="0.6" fill="#5E3C18" d="M87.508,144.619l2.511,1.883l7.74-0.942l10.879-10.355c0,0-6.695,12.551-6.695,14.225
				c0,0-2.092,3.766-0.627,5.648c0,0-3.975,5.021-0.42,8.995c0,0-3.555-2.719-0.418,5.021l-0.208,2.929c0,0-1.674,0.418-1.255,1.464
				c0,0-3.766,0-2.929,4.184c0,0-2.093,1.882-2.093,5.23c0,0-4.183-2.301-2.091,4.393c0,0-8.995-2.092-9.414,3.975l-5.857,0.344
				c0,0,4.184-11.641,7.322-14.988l2.092-17.572c0,0-3.557-2.092,0.418-2.929l-1.674-6.275l2.301,2.091l-1.255-6.275l1.465,1.255
				L87.508,144.619z"/>
			<g>
				<g>
					<path fill="#7D5422" d="M86.044,172.651c-0.468-1.74-0.039-3.358,0.824-4.746c0.879-1.372,2.372-2.514,4.151-2.954
						c1.756-0.441,3.717-0.213,5.124,0.687c0.377,0.188,0.706,0.435,0.997,0.725c0.301,0.276,0.579,0.573,0.836,0.877
						c0.244,0.323,0.44,0.688,0.615,1.07c0.174,0.379,0.329,0.763,0.423,1.202c-0.913,0.234-1.632,0.299-2.303,0.391
						c-0.336,0.064-0.65,0.122-0.941,0.158c-0.149,0.026-0.287,0.032-0.425,0.044c-0.137,0.03-0.272,0.077-0.398,0.096
						c-0.256,0.058-0.496,0.097-0.722,0.118c-0.222,0.088-0.426,0.12-0.627,0.164c-0.204,0.015-0.38,0.114-0.563,0.148
						c-0.184,0.026-0.363,0.064-0.536,0.132c-0.704,0.173-1.491,0.346-2.521,0.666L86.044,172.651z"/>
				</g>
				<g>
					<path fill="#7D5422" d="M76.42,189.386c-0.508-2.584-0.148-5.107,0.695-7.513c0.877-2.381,2.322-4.745,4.758-6.498
						c1.215-0.854,2.701-1.522,4.297-1.735c1.588-0.213,3.217,0.009,4.566,0.595c2.696,1.21,4.456,3.292,5.348,5.738
						c-2.541-0.602-4.717-1.17-6.494-1.161c-1.777,0.043-2.902,0.543-4.256,1.462c-1.334,0.933-2.727,2.354-4.146,3.948
						C79.743,185.818,78.278,187.562,76.42,189.386z"/>
				</g>
			</g>
			<path fill="#E8918B" d="M58.011,194.826c0,0,2.093-7.74,17.573,0c0,0,2.719,0.702,5.44-0.344c0,0,8.367-8.651,19.246-4.258
				c0,0,6.275-0.837,3.138,10.251c0,0-2.719,11.297-11.087,9.205c0,0-18.41-1.465-21.757-0.837c0,0-3.766-0.628-2.091-2.929
				c0,0,1.463-8.159-6.903-9.623C61.568,196.29,59.267,196.917,58.011,194.826z"/>
			<g>
				<path fill="#F6B9B4" d="M91.692,190.642c0,0,1.674,2.929-2.928,2.092C88.764,192.734,86.671,190.642,91.692,190.642z"/>
				<path fill="#DC8180" d="M92.529,192.943c0,0-8.786,0.419-7.95,4.184c0,0,0.57,4.602,3.946,3.556L92.529,192.943z"/>
				<path fill="#DC8180" d="M69.517,202.775c0,0,3.557,4.184,12.134,3.975c0,0-10.251,2.107-12.134,0.008
					C69.517,206.758,68.053,203.612,69.517,202.775z"/>
				<path fill="#DC8180" d="M59.476,193.78c0,0,2.093-3.139,4.602,0H59.476z"/>
				<polygon fill="#F6B9B4" points="67.844,193.78 70.773,196.29 70.773,195.035 				"/>
				<path fill="#F6B9B4" d="M88.554,204.867l2.51-1.255l1.255,1.255C92.32,204.867,91.692,206.75,88.554,204.867z"/>
			</g>
			<path fill="#AD595B" d="M97.13,194.617c0,0,1.465,7.112-4.811,5.439l1.465-5.439C93.784,194.617,94.829,196.499,97.13,194.617z"
				/>
			<g>
				<path fill="#4C0A22" d="M98.177,191.897c0.42,0.493,0.618,1.144,0.573,1.877c-0.049,0.731-0.509,1.525-1.17,2.002
					c-0.662,0.515-1.394,0.674-2.082,0.793c-0.33,0.018-0.677,0.05-1,0.038c-0.316-0.03-0.635-0.052-0.95-0.095l1.68-1.08
					c-0.286,1.009-0.666,1.992-1.157,2.945c-0.252,0.475-0.524,0.943-0.845,1.399c-0.333,0.452-0.662,0.905-1.115,1.324
					c-0.174-0.592-0.224-1.15-0.278-1.709c-0.042-0.556-0.036-1.098-0.008-1.634c0.067-1.069,0.245-2.108,0.517-3.122l0.333-1.243
					l1.347,0.162c0.464,0.056,0.911,0.123,1.328,0.155c0.393,0.016,0.784,0.036,1.076-0.015c0.304-0.044,0.602-0.13,0.922-0.433
					C97.685,192.966,97.928,192.481,98.177,191.897z"/>
			</g>
			<path fill="#AD595B" d="M67.216,196.709c0,0,0.419,5.439,3.347,3.347C70.563,200.056,69.099,197.127,67.216,196.709z"/>
			<g>
				<path fill="#4C0A22" d="M63.033,194.826c1.139-0.289,2.226-0.197,3.266,0.037c1.039,0.244,2.029,0.689,2.931,1.318
					c0.898,0.622,1.722,1.456,2.247,2.533c0.523,1.048,0.711,2.395,0.133,3.434c-0.699-0.957-1.348-1.487-2.016-2.013
					c-0.655-0.521-1.363-0.992-2.088-1.5c-0.722-0.507-1.459-1.051-2.216-1.648C64.537,196.374,63.784,195.716,63.033,194.826z"/>
			</g>
			<g>
				<path fill="#EAD6B0" d="M82.278,195.872c1.595-3.321,4.903-5.819,8.635-6.745c1.876-0.385,3.826-0.53,5.716-0.24
					c0.953,0.087,1.863,0.367,2.796,0.55c0.899,0.289,1.781,0.621,2.669,0.931l0.157,0.055l0.102,0.099
					c1.418,1.375,1.492,3.134,1.21,4.615c-0.296,1.502-1.063,2.742-1.855,3.883c-0.852,1.102-1.785,2.11-2.817,2.992
					c-1.006,0.911-2.114,1.687-3.224,2.439c0.877-1.026,1.788-1.993,2.607-3.03c0.836-1.02,1.593-2.085,2.251-3.18
					c0.624-1.103,1.133-2.265,1.3-3.402c0.097-0.57,0.048-1.118-0.063-1.622c-0.083-0.243-0.166-0.479-0.28-0.696
					c-0.105-0.189-0.299-0.449-0.366-0.499l0.258,0.153c-0.83-0.268-1.653-0.561-2.484-0.812c-0.844-0.169-1.676-0.456-2.529-0.545
					c-1.701-0.265-3.417-0.276-5.109-0.03c-1.691,0.258-3.325,0.86-4.851,1.713C84.875,193.357,83.475,194.493,82.278,195.872z"/>
			</g>
			<g>
				<path fill="#EAD6B0" d="M63.66,191.688c1.722-0.69,3.648-0.805,5.525-0.54c1.874,0.295,3.733,1.04,5.273,2.233
					c0.767,0.597,1.46,1.286,2.048,2.05c0.573,0.753,1.074,1.456,1.573,2.221c1.001,1.497,1.946,3.039,2.735,4.704
					c-1.442-1.148-2.728-2.419-3.958-3.734c-0.63-0.632-1.204-1.369-1.802-1.975c-0.563-0.613-1.164-1.181-1.816-1.681
					c-1.303-1.003-2.789-1.763-4.403-2.303C67.21,192.159,65.489,191.822,63.66,191.688z"/>
			</g>
			<path fill="#111526" d="M81.442,160.936c0,0-7.322,1.255-4.812,4.393c0,0-0.628,3.557,4.812,3.139V160.936z"/>
			<circle fill="#EBE3B0" cx="79.389" cy="164.911" r="1.414"/>
			<path fill="#EBE3B0" d="M78.11,163.409c0,0.293-0.238,0.531-0.531,0.531c-0.293,0-0.531-0.238-0.531-0.531
				c0-0.293,0.238-0.531,0.531-0.531C77.872,162.878,78.11,163.116,78.11,163.409z"/>
			<g>
				<path fill="#C62E2A" d="M76.212,165.748c0.722,0.258,1.181,0.357,1.563,0.46c0.372,0.101,0.643,0.181,0.893,0.33
					c0.261,0.134,0.503,0.342,0.811,0.634c0.307,0.306,0.664,0.661,1.125,1.296c-0.464,0.614-1.033,0.905-1.631,1.008
					c-0.597,0.097-1.229-0.021-1.783-0.328c-0.549-0.317-1.006-0.828-1.226-1.44C75.756,167.102,75.743,166.381,76.212,165.748z"/>
			</g>
			<g>
				<path fill="#C62E2A" d="M77.048,169.304c0.571-0.366,0.8-0.66,1.025-0.843c0.212-0.183,0.376-0.281,0.565-0.291
					c0.185-0.007,0.398,0.058,0.67,0.228c0.279,0.173,0.603,0.413,1.088,0.906c-0.06,0.683-0.287,1.093-0.571,1.396
					c-0.293,0.285-0.649,0.454-1.042,0.466c-0.387,0.018-0.804-0.103-1.159-0.397C77.288,170.471,76.953,170,77.048,169.304z"/>
			</g>
			<path fill="#996C3A" d="M75.584,147.338l5.021,8.996c0,0,2.511-5.439,3.139-8.996H75.584z"/>
			<g>
				<path fill="#7D5422" d="M109.892,212.607c-0.084,1.552,0.39,2.883,1.241,3.505c0.811,0.652,1.889,0.932,3.057,1.148
					c1.218,0.148,2.473,0.257,3.805,0.23c1.304,0.035,2.676-0.073,4.021-0.089l-0.573,0.064c0.231-0.079,0.673-0.206,0.994-0.333
					c0.345-0.129,0.669-0.277,0.94-0.427c0.276-0.136,0.519-0.284,0.633-0.386c0.126-0.101,0.122-0.14,0.094,0.007l5.673,0.967
					c-0.008,0.492,0.062,1.189,0.106,1.785c0.048,0.62,0.153,1.222,0.244,1.807c0.198,1.165,0.545,2.221,0.929,2.869
					c0.203,0.315,0.376,0.562,0.719,0.738c0.332,0.202,0.861,0.269,1.46,0.237c0.602-0.018,1.262-0.181,1.954-0.345
					c0.678-0.205,1.375-0.445,2.109-0.689c-0.749,1.335-1.708,2.573-3.199,3.486c-0.742,0.447-1.662,0.811-2.759,0.82
					c-1.084,0.01-2.265-0.391-3.122-1.041c-0.883-0.632-1.523-1.409-2.026-2.185c-0.516-0.774-0.876-1.575-1.187-2.364
					c-0.317-0.789-0.525-1.588-0.718-2.382c-0.19-0.818-0.299-1.545-0.39-2.484l5.673,0.967c-0.403,1.043-1.044,1.758-1.638,2.293
					c-0.607,0.543-1.195,0.901-1.771,1.214c-0.583,0.301-1.15,0.53-1.714,0.724c-0.589,0.196-1.07,0.352-1.781,0.487l-0.39,0.074
					l-0.184-0.01c-1.553-0.084-3.087-0.151-4.665-0.476c-0.771-0.12-1.574-0.332-2.355-0.584c-0.774-0.193-1.579-0.587-2.338-0.933
					c-0.383-0.174-0.772-0.448-1.139-0.683c-0.185-0.126-0.368-0.234-0.548-0.375l-0.527-0.468l-0.498-0.48
					c-0.155-0.183-0.299-0.387-0.441-0.579c-0.139-0.198-0.284-0.379-0.395-0.596l-0.295-0.673c-0.215-0.423-0.24-0.943-0.316-1.385
					c-0.005-0.469,0.017-0.921,0.139-1.342C108.916,213.88,109.334,213.151,109.892,212.607z"/>
			</g>
		</g>
		<g>
			<path fill="#DEB789" d="M132.263,138.427c0,0,26.996,0.53,52.916-5.339c0,0,5.575-3.045,2.452-5.83
				c0,0-39.883-28.448-47.74-40.948c0,0-4.85-4.997,0.267-12.431c0,0,17.716-25.379,28.61-35.9l1.631,0.776
				c0,0-20.665,31.912-21.322,38.661c0,0,0.326,5.269,3.324,7.439c0,0,31.473,28.01,44.989,40.009c0,0,10.271,8.598,6.01,11.805
				c0,0-2.903,5.708-63.97,11.335L132.263,138.427z"/>
			<g>
				<path fill="#F9E4C7" d="M148.72,141.723c2.833-0.703,5.681-1.261,8.53-1.808c2.852-0.517,5.704-1.033,8.566-1.454
					c2.859-0.45,5.721-0.871,8.589-1.235c2.867-0.373,5.736-0.719,8.61-1.023l0.596,3.926c-3.19,0.67-6.392,1.286-9.598,1.876
					c-3.208,0.584-6.42,1.144-9.649,1.627l-4.842,0.724l-4.861,0.63c-3.251,0.37-6.501,0.746-9.789,0.929
					c3.102-1.106,6.244-2.019,9.384-2.938l4.725-1.304l4.744-1.21c3.163-0.806,6.341-1.535,9.525-2.24
					c3.185-0.699,6.374-1.372,9.575-1.991l0.596,3.926c-2.876,0.286-5.756,0.531-8.639,0.748c-2.882,0.226-5.77,0.396-8.66,0.537
					c-2.888,0.17-5.785,0.243-8.683,0.317C154.538,141.802,151.637,141.836,148.72,141.723z"/>
			</g>
			<path fill="#961F20" d="M158.833,54.32c0,0-6.228,5.097-7.041,9.53C151.792,63.85,158.306,58.054,158.833,54.32z"/>
			<path fill="#F9DBBF" d="M142.695,70.593c0,0-4.496,10.51-2.932,12.969c0,0,7.309,8.723,9.815,8.454
				C149.578,92.016,139.971,85.654,142.695,70.593z"/>
			<path fill="#CFA479" d="M154.131,63.804c0,0-6.838,8.422-7.359,15.356C146.771,79.161,153.682,65.816,154.131,63.804z"/>
			<path fill="#D2AB80" d="M149.16,84.654l39.237,34.768C188.397,119.422,150.936,92.406,149.16,84.654z"/>
			<path fill="#D2AB80" d="M197.434,126.135c0,0,6.21,8.564-4.454,10.715c0,0,6.984,2.883,9.725-2.577
				C202.704,134.273,204.419,132.195,197.434,126.135z"/>
			<polygon fill="#961F20" points="172.545,32.453 157.959,49.989 158.912,52.597 161.812,52.51 173.407,34.526 			"/>
			<g>
				<path fill="#CC404E" d="M168.983,39.042c-0.371,1.13-0.905,2.129-1.477,3.098c-0.582,0.961-1.224,1.873-1.92,2.744
					c-0.695,0.87-1.444,1.697-2.255,2.475c-0.82,0.771-1.679,1.509-2.702,2.117c0.369-1.131,0.902-2.131,1.474-3.1
					c0.582-0.961,1.224-1.873,1.922-2.742c0.697-0.869,1.446-1.696,2.257-2.473C167.103,40.391,167.961,39.651,168.983,39.042z"/>
			</g>
			<g>
				<g>
					<path fill="#AB845B" d="M150.969,137.001c1.085-0.506,2.311-0.24,3.255,0.486c0.96,0.73,1.541,1.956,1.632,3.099
						c0.129,1.169-0.22,2.211-0.728,3.087c-0.296,0.413-0.605,0.814-1.003,1.142c-0.434,0.309-0.852,0.608-1.419,0.798
						c-0.231-0.579-0.313-1.051-0.411-1.512c-0.094-0.454-0.177-0.865-0.204-1.247c-0.13-0.753-0.149-1.39-0.218-1.9
						c-0.051-0.525-0.041-0.949-0.123-1.543C151.669,138.809,151.473,138.056,150.969,137.001z"/>
				</g>
				<g>
					<path fill="#AB845B" d="M164.18,136.898c1.22-0.614,2.408-0.778,3.573-0.78c1.163,0.016,2.306,0.234,3.412,0.677
						c1.098,0.454,2.192,1.102,3.098,2.255c0.428,0.573,0.856,1.366,0.812,2.283c-0.057,0.933-0.663,1.586-1.327,1.745
						c-0.034-0.709-0.251-1.174-0.588-1.307c-0.295-0.144-0.594-0.225-0.972-0.356c-0.743-0.254-1.633-0.547-2.526-0.913
						c-0.899-0.366-1.82-0.804-2.74-1.362C166.003,138.567,165.085,137.909,164.18,136.898z"/>
				</g>
				<g>
					<path fill="#AB845B" d="M185.013,132.268c1.475-0.9,3.021-1.336,4.579-1.603c1.56-0.246,3.144-0.279,4.733-0.076
						c1.585,0.213,3.192,0.641,4.712,1.528c0.748,0.451,1.493,1.021,2.047,1.825c0.556,0.781,0.817,1.907,0.389,2.688
						c-0.489-0.749-1.082-1.014-1.674-1.2c-0.596-0.182-1.231-0.286-1.889-0.376l-4.105-0.5c-1.409-0.185-2.845-0.418-4.306-0.756
						C188.036,133.449,186.557,133.023,185.013,132.268z"/>
				</g>
				<g>
					<path fill="#AB845B" d="M189.131,116.713c-0.92,0.772-1.713,1.228-2.469,1.615c-0.751,0.374-1.435,0.66-2.05,0.884
						c-0.619,0.231-1.16,0.362-1.688,0.55c-0.548,0.18-1.191,0.512-2.073,1.395c-0.812-0.872-0.921-2.292-0.307-3.452
						c0.606-1.176,1.686-1.89,2.704-2.253c1.039-0.369,2.091-0.43,3.086-0.241C187.327,115.421,188.297,115.831,189.131,116.713z"/>
				</g>
				<g>
					<path fill="#AB845B" d="M167.809,98.819c-0.144,1.151-0.422,1.983-0.743,2.737c-0.329,0.739-0.701,1.371-1.102,1.932
						c-0.401,0.562-0.863,1.041-1.346,1.521c-0.497,0.495-1.067,0.936-1.802,1.86c-0.946-0.716-1.217-1.933-1.14-2.972
						c0.079-1.069,0.499-1.999,1.057-2.766c0.562-0.771,1.282-1.376,2.119-1.793C165.699,98.933,166.647,98.664,167.809,98.819z"/>
				</g>
				<g>
					<path fill="#AB845B" d="M152.031,84.075c-0.697,1.011-1.456,1.645-2.237,2.176c-0.782,0.517-1.593,0.886-2.421,1.154
						c-0.827,0.268-1.688,0.411-2.564,0.463c-0.438,0.021-0.902,0.014-1.357-0.011c-0.514-0.036-0.901-0.101-1.549-0.031
						c-0.068-0.63,0.299-1.233,0.592-1.684c0.331-0.482,0.708-0.842,1.105-1.177c0.799-0.654,1.664-1.085,2.567-1.372
						c0.903-0.286,1.842-0.408,2.813-0.368C149.954,83.283,150.958,83.473,152.031,84.075z"/>
				</g>
				<g>
					<path fill="#AB845B" d="M152.826,68.976c-1.091,0.49-1.952,0.743-2.773,0.931c-0.813,0.179-1.55,0.284-2.269,0.325
						c-0.725,0.033-1.408,0.046-2.185-0.016c-0.794-0.075-1.605-0.105-2.823-0.281c0.22-1.166,0.929-2.098,1.813-2.697
						c0.884-0.597,1.928-0.955,2.953-0.998c1.028-0.055,2.046,0.135,2.965,0.565C151.416,67.254,152.27,67.897,152.826,68.976z"/>
				</g>
			</g>
		</g>
	</g>
	<g>
		<path fill="#7D5422" d="M103.685,228.077c1.539,0.493,2.55,0.769,3.38,0.934c0.82,0.163,1.34,0.218,1.851,0.354
			c0.522,0.106,1.088,0.36,1.945,0.658c0.425,0.168,0.911,0.286,1.469,0.543c0.57,0.213,1.168,0.397,1.936,0.805
			c-0.209,0.802-0.589,1.384-0.998,1.987c-0.465,0.507-0.98,0.982-1.596,1.312c-1.221,0.669-2.8,0.885-4.327,0.485
			c-1.538-0.394-2.873-1.481-3.565-2.781C103.099,231.069,102.932,229.537,103.685,228.077z"/>
	</g>
	<g>
		<path fill="#7D5422" d="M116.167,230.988c1.936,0.518,3.391,0.892,4.701,1.09c1.298,0.204,2.342,0.258,3.412,0.254
			c1.073-0.051,2.225-0.107,3.623-0.274c0.701-0.068,1.429-0.229,2.27-0.261c0.809-0.127,1.673-0.232,2.728-0.212
			c-0.219,0.98-0.628,1.834-1.093,2.666c-0.552,0.74-1.151,1.482-1.898,2.077c-1.491,1.188-3.471,1.961-5.592,2.003
			c-2.128,0.029-4.253-0.807-5.74-2.146C117.099,234.841,116.13,233.024,116.167,230.988z"/>
	</g>
	<g>
		<path fill="#604017" d="M104.286,236.376c0.254,3.041,0.773,5.895,1.883,8.305c1.089,2.418,2.775,4.237,4.991,5.419
			c1.104,0.594,2.308,1.091,3.613,1.421c0.631,0.22,1.321,0.294,1.982,0.479c0.686,0.096,1.367,0.248,2.068,0.336
			c2.805,0.397,5.733,0.532,8.795,0.857c-2.781,1.315-5.78,2.075-8.906,2.286c-0.78,0.058-1.575,0.032-2.367,0.024
			c-0.798-0.077-1.596-0.109-2.398-0.279c-1.604-0.253-3.206-0.816-4.71-1.618c-1.495-0.82-2.876-1.955-3.92-3.348
			c-1.049-1.387-1.759-2.988-2.127-4.604c-0.375-1.619-0.428-3.252-0.231-4.819C103.171,239.271,103.555,237.747,104.286,236.376z"
			/>
	</g>
	<path opacity="0.7" fill="#996B3A" d="M175.974,164.154c0,1.199-1.707,2.171-3.813,2.171c-2.105,0-3.811-0.972-3.811-2.171
		c0-1.199,1.706-2.172,3.811-2.172C174.266,161.982,175.974,162.954,175.974,164.154z"/>
	<path opacity="0.5" fill="#4B2D15" d="M193.242,177.881c0,3.235-2.244,5.858-5.012,5.858c-2.769,0-5.013-2.622-5.013-5.858
		c0-3.234,2.244-5.857,5.013-5.857C190.998,172.023,193.242,174.646,193.242,177.881z"/>
	<path opacity="0.5" fill="#4B2D15" d="M175.974,186.368c0,1.956-1.707,3.541-3.813,3.541c-2.105,0-3.811-1.585-3.811-3.541
		c0-1.956,1.706-3.541,3.811-3.541C174.266,182.827,175.974,184.412,175.974,186.368z"/>
	<path opacity="0.7" fill="#996B3A" d="M178.877,177.697c0,1.24-1.054,2.246-2.355,2.246c-1.301,0-2.355-1.005-2.355-2.246
		c0-1.24,1.054-2.246,2.355-2.246C177.822,175.451,178.877,176.456,178.877,177.697z"/>
	<path opacity="0.5" fill="#4B2D15" d="M161.454,172.563c0,1.595-1.464,2.888-3.268,2.888c-1.803,0-3.267-1.293-3.267-2.888
		c0-1.594,1.463-2.887,3.267-2.887C159.991,169.676,161.454,170.969,161.454,172.563z"/>
	<path opacity="0.7" fill="#996B3A" d="M210.335,196.29c0,1.155-0.974,2.092-2.178,2.092c-1.203,0-2.178-0.937-2.178-2.092
		c0-1.156,0.975-2.092,2.178-2.092C209.36,194.198,210.335,195.134,210.335,196.29z"/>
	<path opacity="0.7" fill="#996B3A" d="M161.974,216.21c-1.494,2.148-1.638,4.632-0.322,5.548c1.317,0.916,3.596-0.083,5.09-2.231
		c1.495-2.148,1.639-4.633,0.322-5.548C165.747,213.063,163.468,214.062,161.974,216.21z"/>
</g>
</svg>
