<?xml version="1.0" encoding="utf-8"?>
<!-- Generator: Adobe Illustrator 24.3.0, SVG Export Plug-In . SVG Version: 6.00 Build 0)  -->
<svg version="1.1" id="Layer_1" xmlns="http://www.w3.org/2000/svg" xmlns:xlink="http://www.w3.org/1999/xlink" x="0px" y="0px"
	 viewBox="0 0 325 325" enable-background="new 0 0 325 325" xml:space="preserve">
<g id="inek_1_">
	<path fill="#484747" d="M71.852,266.038c0,0-10.598,6.094-10.068,9.273c0,0,2.63,0.529,5.024-1.059c0,0-2.904,5.033,5.044,4.239
		c0,0,14.837,0.615,13.512-6.183C85.364,272.308,84.305,262.593,71.852,266.038z"/>
	<path fill="#F7F8F6" d="M72.647,209.074c0,0,2.915,33.913,0,40.537c0,0-7.419,16.957,0,21.197c0,0,11.658,4.596,13.777,3.006
		c0,0,3.974-2.477,0.794-17.314c0,0-1.325-36.033,1.325-41.861L72.647,209.074z"/>
	<path opacity="0.3" fill="#DEDFDD" d="M67.244,215.746c0,0,5.68,5.326,6.575,8.338l0.038,16.947c0,0,13.624,0.366,13.095,4.605
		l0.016-18.987L67.244,215.746z"/>
	<path fill="#484747" d="M206.446,266.567c0,0-10.598,2.12-7.684,5.828l3.588-1.324c0,0-0.651,2.65,0,3.444
		c0,0,11.514,0.266,14.163-2.649c0,0,2.914-3.709-2.385-6.888L206.446,266.567z"/>
	<path fill="#F7F8F6" d="M202.736,226.56c0,0-0.922,33.199,0.933,40.352c0,0,13.374,5.484,14.699,4.16
		c0,0,2.386-34.974,1.855-45.837L202.736,226.56z"/>
	<g>
		<g>
			<path fill="#E49C8F" d="M199.027,255.175c0,2.048-1.186,3.71-2.649,3.71c-1.464,0-2.65-1.661-2.65-3.71
				c0-2.049,1.186-3.709,2.65-3.709C197.841,251.466,199.027,253.126,199.027,255.175z"/>
			<path fill="#E49C8F" d="M206.181,255.175c0,2.048-1.186,3.71-2.649,3.71c-1.463,0-2.649-1.661-2.649-3.71
				c0-2.049,1.186-3.709,2.649-3.709C204.995,251.466,206.181,253.126,206.181,255.175z"/>
			<path fill="#E49C8F" d="M213.864,255.175c0,2.048-1.187,3.71-2.649,3.71c-1.464,0-2.649-1.661-2.649-3.71
				c0-2.049,1.185-3.709,2.649-3.709C212.678,251.466,213.864,253.126,213.864,255.175z"/>
			<path fill="#E49C8F" d="M220.753,253.055c0,2.049-1.187,3.711-2.649,3.711c-1.464,0-2.65-1.661-2.65-3.711
				c0-2.048,1.187-3.709,2.65-3.709C219.567,249.346,220.753,251.007,220.753,253.055z"/>
		</g>
		<path fill="#EDA895" d="M175.712,237.952c0,0,10.333,27.82,44.776,13.248c0,0,11.923-2.385,5.299-19.606
			C225.787,231.594,186.31,227.885,175.712,237.952z"/>
		<path opacity="0.7" fill="#F3BCB3" d="M186.636,246.469c0.132-0.314,0.618-0.359,1.441-0.51c1.062-0.194,2.152-0.171,3.22-0.31
			c2.083-0.269,4.157-0.61,6.222-0.997c3.381-0.632,6.744-1.426,10.008-2.517c1.422-0.476,2.753-1.167,4.084-1.845
			c1.006-0.511,3.163-2.086,4.316-1.957c1.093,0.122,1.641,2.358,1.979,3.431c1.089,3.461,0.981,7.56-3.047,8.883
			c-5.241,1.72-10.803,3.159-16.363,2.799c-3.01-0.194-6.034-0.977-8.513-2.752c-1.071-0.767-2.757-2.072-3.229-3.352
			C186.598,246.917,186.559,246.65,186.636,246.469z"/>
	</g>
	<g>
		<path fill="#F7F8F6" d="M81.92,68.386c0,0,8.743,35.238,34.973,47.161c0,0,20.931,14.308,87.698,4.504
			c0,0,23.316-9.803,34.973,19.342c0,0,4.239,10.597,2.914,28.879c0,0,2.65,46.896-5.564,54.58c0,0-29.41,31.794-122.936,21.196
			c0,0-26.231,4.504-49.28-31.53c0,0-14.043-31.528,2.913-70.476l-1.325-65.177L81.92,68.386z"/>
		<path opacity="0.3" fill="#DEDFDD" d="M81.92,68.386c0,0,3.798,13.886,10.954,24.814c0.375,0.573-0.426,34.49,4.149,55.73
			c1.445,6.711,1.987,13.895-1.251,20.202c-2.16,4.206-5.722,7.432-9.747,9.821c-2.75,1.632-5.734,2.896-8.769,3.888
			c-4.137,1.352-4.476,2.622-7.521,5.613c-1.693,1.662-4.174,2.426-5.615,4.354c-2.214,2.964-2.018,9.929-1.561,13.446
			c0,0-10.129-28.89,5.054-64.213c0,0-0.132-54.761-1.325-65.177L81.92,68.386z"/>
	</g>
	<path fill="#484747" d="M96.757,274.516c0,0-7.683,5.034-2.384,9.803c0,0,2.65-3.444,4.77-3.444c0,0,1.059,3.444-1.855,3.444
		c0,0-1.855,2.649,3.179,2.915c0,0,14.307,2.649,21.726-7.949C122.192,279.285,115.304,263.918,96.757,274.516z"/>
	<path fill="#F7F8F6" d="M93.578,232.124c0,0,4.769,25.436,1.854,37.358c0,0-3.179,9.803,7.684,11.658c0,0,19.077,5.034,20.931-3.18
		c0,0-10.863-38.418-10.863-41.862L93.578,232.124z"/>
	<path fill="#484747" d="M225.523,267.892c0,0-7.155,5.564-4.24,10.599c0,0,4.24-4.769,5.828-2.651c0,0-3.709,4.239,0,4.506
		c0,0,16.957,2.12,19.606-10.068C246.718,270.277,234.795,260.474,225.523,267.892z"/>
	<path opacity="0.3" fill="#DEDFDD" d="M206.976,221.261c0,0,17.321,9.009,16.527,30.469c0,0-0.69-8.555-4.952-17.449
		c0,0-4.286,1.796-6.315,2.53c0,0-3.341-1.749-2.345-7.867C210.22,226.918,204.062,223.646,206.976,221.261z"/>
	<path fill="#F7F8F6" d="M207.24,218.877c0,0,22.786,19.075,14.838,51.665c0,0,14.571,10.333,23.051,0c0,0,2.119-6.27-6.094-23.537
		c0,0-8.743-14.086,1.589-33.163L207.24,218.877z"/>
	<g>
		<path fill="#F7F8F6" d="M229.231,131.974c0,0,22.256,62.528,42.922,65.177c0,0,10.332-11.657,23.051,2.12
			c0,0,3.709,8.478-3.974,7.948c0,0-12.571,3.045-17.487-3.974c0,0-27.819,0.265-50.075-69.151L229.231,131.974z"/>
		<path opacity="0.9" fill="#5E5F5F" d="M272.153,197.151c0,0,10.707-11.571,23.051,2.12c0,0,3.694,8.712-4.284,8.017
			c0,0-11.718,2.936-17.438-4.309L272.153,197.151z"/>
		<g>
			<path fill="#454444" d="M272.153,196.886c1.406-1.509,3.158-2.725,5.083-3.559c1.92-0.85,4.037-1.306,6.158-1.275
				c2.105,0.07,4.244,0.432,6.132,1.37l0.722,0.308c0.23,0.124,0.454,0.26,0.678,0.395l1.336,0.81
				c0.839,0.612,1.634,1.284,2.412,1.951c-0.917-0.487-1.756-1.071-2.664-1.53l-1.378-0.644l-0.683-0.324l-0.716-0.242l-1.422-0.489
				l-1.464-0.313c-0.482-0.134-0.98-0.162-1.475-0.211c-0.495-0.045-0.988-0.121-1.485-0.081c-1.987-0.049-3.974,0.331-5.866,0.998
				C275.633,194.729,273.814,195.669,272.153,196.886z"/>
		</g>
		<g>
			<path fill="#454444" d="M275.598,199.005c1.483-0.959,3.173-1.615,4.923-1.988c1.752-0.379,3.585-0.432,5.373-0.167
				c0.9,0.103,1.769,0.388,2.631,0.646c0.832,0.355,1.683,0.665,2.432,1.175c0.799,0.419,1.475,1.019,2.165,1.579
				c0.355,0.269,0.628,0.631,0.936,0.948c0.303,0.323,0.596,0.653,0.881,0.987c-1.408-1.068-2.795-2.109-4.354-2.828
				c-1.52-0.78-3.165-1.277-4.84-1.519c-1.673-0.267-3.392-0.264-5.095-0.055C278.951,198.015,277.25,198.395,275.598,199.005z"/>
		</g>
		<g>
			<path fill="#454444" d="M276.922,202.979c1.722,0.476,3.445,0.894,5.164,1.287c1.723,0.371,3.449,0.712,5.186,0.892
				c1.731,0.2,3.479,0.255,5.181,0.011c1.684-0.265,3.367-0.872,4.606-2.191c-0.917,1.569-2.677,2.557-4.456,2.956
				c-1.796,0.424-3.646,0.406-5.441,0.216C283.569,205.716,280.094,204.634,276.922,202.979z"/>
		</g>
	</g>
	<g opacity="0.7">
		<path fill="#CD8046" d="M200.617,120.614c0,0,15.367-6.062,27.025,2.277c0,0-8.743,8.553-20.666,4.843
			C206.976,127.734,201.147,125.383,200.617,120.614z"/>
		<path fill="#CD8046" d="M245.029,180.725h7.518l6.358,6.623l0.978,9.681C259.883,197.029,247.585,187.082,245.029,180.725z"/>
		<path fill="#CD8046" d="M99.142,102.034c0,0,18.875,19.43,44.046,20.489c0,0,0.514,21.068-22.467,19.122
			c-6.908-0.585-15.653-1.447-20.785-16.825C98.132,119.413,93.843,112.102,99.142,102.034z"/>
		<path fill="#CD8046" d="M116.515,250.454c0,0,3.955,14.664,6.461,23.694c0,0-12.177-2.811-11.382-14.203
			C111.594,259.944,112.276,252.573,116.515,250.454z"/>
		<path fill="#CD8046" d="M240.094,249.61c0,0,5.28,9.181,4.935,18.287c0,0-7.248,3.237-9.438-7.689
			C235.024,257.386,234.529,247.226,240.094,249.61z"/>
		<path fill="#CD8046" d="M125.106,213.579c0.564,11.127-9.402,20.573-20.136,18.281c-7.66-1.636-16.162-6.38-16.162-17.355
			c0-10.974,5.452-18.944,16.426-18.944C116.21,195.561,124.551,202.595,125.106,213.579z"/>
		<path fill="#CD8046" d="M215.984,173.041c0,17.999-9.822,26.23-27.819,26.23c-17.998,0-34.444-11.941-34.444-29.939
			c0-17.999,14.59-27.819,32.589-27.819C204.308,141.512,215.984,155.043,215.984,173.041z"/>
		<path fill="#CD8046" d="M237.974,211.061c0,4.755-2.431,8.61-5.431,8.61c-3,0-7.02-2.397-7.02-7.153
			c0-4.755,4.021-10.068,7.02-10.068C235.543,202.45,237.974,206.305,237.974,211.061z"/>
		<path fill="#CD8046" d="M201.411,127.867c0,2.122-2.193,3.841-4.901,3.841c-2.707,0-4.902-1.72-4.902-3.841
			c0-2.122,2.194-3.841,4.902-3.841C199.218,124.026,201.411,125.745,201.411,127.867z"/>
		<path fill="#CD8046" d="M218.898,132.371c0,0.951-0.889,1.722-1.987,1.722c-1.098,0-1.988-0.772-1.988-1.722
			c0-0.952,0.89-1.722,1.988-1.722C218.009,130.649,218.898,131.419,218.898,132.371z"/>
		<path fill="#CD8046" d="M241.154,202.45c0,1.171-0.535,2.119-1.192,2.119c-0.659,0-1.192-0.948-1.192-2.119
			c0-1.17,0.533-2.12,1.192-2.12C240.619,200.33,241.154,201.28,241.154,202.45z"/>
		<path fill="#CD8046" d="M222.608,165.225c0,1.097-0.89,1.987-1.987,1.987c-1.097,0-1.987-0.89-1.987-1.987
			c0-1.098,0.889-1.987,1.987-1.987C221.718,163.238,222.608,164.127,222.608,165.225z"/>
		<path fill="#CD8046" d="M153.192,178.075c0,1.024-0.772,1.854-1.723,1.854c-0.952,0-1.722-0.83-1.722-1.854
			c0-1.025,0.77-1.855,1.722-1.855C152.419,176.22,153.192,177.05,153.192,178.075z"/>
		<path fill="#CD8046" d="M148.686,135.815c0,1.098-0.948,1.987-2.119,1.987c-1.17,0-2.119-0.889-2.119-1.987
			c0-1.097,0.949-1.987,2.119-1.987C147.738,133.828,148.686,134.718,148.686,135.815z"/>
		<path fill="#CD8046" d="M112.124,187.082c0,2.488-2.017,4.505-4.505,4.505c-2.487,0-4.504-2.016-4.504-4.505
			c0-2.487,2.017-4.503,4.504-4.503C110.107,182.579,112.124,184.595,112.124,187.082z"/>
		<ellipse fill="#CD8046" cx="84.172" cy="215.3" rx="2.782" ry="2.517"/>
		<path fill="#CD8046" d="M90.928,200.198c0,0.951-0.83,1.722-1.854,1.722c-1.024,0-1.856-0.771-1.856-1.722
			s0.831-1.722,1.856-1.722C90.098,198.476,90.928,199.247,90.928,200.198z"/>
		<path fill="#CD8046" d="M117.688,147.606c0,0.878-1.187,1.589-2.649,1.589s-2.649-0.711-2.649-1.589
			c0-0.878,1.187-1.59,2.649-1.59S117.688,146.728,117.688,147.606z"/>
		<path fill="#CD8046" d="M104.97,141.645c0,4.169-2.609,7.55-5.828,7.55c-3.22,0-5.83-3.38-5.83-7.55
			c0-4.171,2.611-7.551,5.83-7.551C102.361,134.094,104.97,137.474,104.97,141.645z"/>
	</g>
	<g>
		<path fill="#484747" d="M85.893,38.182c0,0,2.65,16.162-9.802,23.58l6.887,4.769C82.979,66.532,96.492,54.344,85.893,38.182z"/>
		<path fill="#484747" d="M60.58,37.472c0,0-2.649,16.162,9.802,23.58l-6.888,4.769C63.495,65.821,49.982,53.633,60.58,37.472z"/>
		<g>
			<path fill="#F7F8F6" d="M67.612,60.438c2.663-1.038,6.356-0.858,9.048-0.187c11.433,2.845,10.187,15.791,10.022,24.891
				c-0.22,12.13-0.053,25.187,3.981,36.765c0,0,25.171,34.178-23.051,28.35c0,0-28.879-5.829-33.913-14.573
				c-0.246-0.427,4.073-5.976,4.404-6.486c3.282-5.076,6.351-10.303,9.052-15.713c2.948-5.909,6.288-12.566,6.681-19.247
				c0.394-6.707-0.101-13.389,1.857-19.929C57.54,68.141,61.479,62.83,67.612,60.438z"/>
			<path fill="#EDA895" d="M37.674,129.324c0,0,30.204,14.571,58.024,2.914c0,0,15.896,27.82-6.624,37.093
				c0,0-31.264,16.692-56.434-13.248C32.639,156.084,27.605,142.837,37.674,129.324z"/>
		</g>
		<g>
			<path fill="#B57858" d="M87.484,151.58c0.003-0.001,10.068-3.443,8.214,6.889c-1.679,3.655-5.021,8.834-9.423,9.248
				C75.597,168.721,81.174,153.738,87.484,151.58z"/>
			<path opacity="0.5" fill="#86563E" d="M80.51,164.705c-1.073-3.323,1.907-13.057,9.382-13.617c0,0,7.337-1.463,5.805,7.381
				c0,0,0.197-6.717-6.094-5.035c-3.718,0.995-10.708,3.504-7.841,13.247C81.763,166.681,80.709,165.321,80.51,164.705z"/>
		</g>
		<g>
			<path fill="#B57858" d="M42.536,146.867c-0.002-0.001-10.068-3.443-8.214,6.888c1.679,3.657,5.02,8.835,9.423,9.248
				C54.423,164.008,48.846,149.026,42.536,146.867z"/>
			<path opacity="0.5" fill="#86563E" d="M49.509,159.992c1.073-3.323-1.906-13.057-9.383-13.616c0,0-7.336-1.463-5.805,7.38
				c0,0-0.197-6.716,6.094-5.033c3.718,0.994,10.708,3.505,7.84,13.247C48.256,161.97,49.31,160.608,49.509,159.992z"/>
		</g>
		<path opacity="0.8" fill="#AC6A2B" d="M84.305,86.668c0,6.146-3.128,11.127-9.273,11.127c-6.146,0-7.684-4.982-7.684-11.127
			c0-6.146,1.537-11.128,7.684-11.128C81.177,75.539,84.305,80.522,84.305,86.668z"/>
		<path fill="#3D3D3D" d="M78.475,85.343c0,2.048-1.661,3.709-3.709,3.709c-2.05,0-3.71-1.661-3.71-3.709
			c0-2.048,1.661-3.709,3.71-3.709C76.815,81.633,78.475,83.295,78.475,85.343z"/>
		<path fill="#3D3D3D" d="M64.963,85.343c0,2.048-1.66,3.709-3.709,3.709s-3.709-1.661-3.709-3.709c0-2.048,1.661-3.709,3.709-3.709
			S64.963,83.295,64.963,85.343z"/>
		<g>
			<path fill="#F7F8F6" d="M85.364,66.001c0,0,7.948-19.076,28.88-13.247c0,0,5.299,23.58-11.658,26.229
				c0,0-10.863,3.444-17.222-4.769l-3.048-5.366L85.364,66.001z"/>
			<path opacity="0.4" fill="#D9DAD9" d="M88.279,71.301c0,0,11.393-18.812,23.315-15.898c0,0,1.325,20.666-4.769,20.666
				C106.824,76.07,90.663,81.103,88.279,71.301z"/>
			<g>
				<path fill="#C9C8C8" d="M88.013,71.565c1.289-2.144,2.802-4.148,4.421-6.061c1.621-1.913,3.415-3.682,5.333-5.313
					c1.958-1.576,4.066-3.018,6.415-3.983c2.33-0.961,4.962-1.404,7.411-0.804c-2.494-0.286-4.962,0.297-7.181,1.333
					c-2.227,1.042-4.281,2.438-6.168,4.032c-1.923,1.554-3.685,3.306-5.382,5.118C91.169,67.702,89.555,69.6,88.013,71.565z"/>
			</g>
			<g>
				<path fill="#C9C8C8" d="M89.868,71.035c1.562-1.391,3.317-2.527,5.159-3.505c0.925-0.481,1.882-0.913,2.877-1.251
					c0.987-0.339,2.039-0.6,3.092-0.543c-1.017,0.234-1.945,0.666-2.875,1.087c-0.923,0.437-1.842,0.886-2.747,1.372
					C93.55,69.137,91.754,70.137,89.868,71.035z"/>
			</g>
			<g>
				<path fill="#C9C8C8" d="M88.279,71.301c0.592,1.407,1.577,2.583,2.74,3.476c1.175,0.888,2.55,1.475,3.983,1.812
					c1.427,0.394,2.929,0.435,4.425,0.488c0.749-0.037,1.504-0.045,2.258-0.105c0.753-0.068,1.506-0.162,2.272-0.209
					c-0.732,0.214-1.478,0.381-2.222,0.573c-0.754,0.134-1.519,0.209-2.284,0.317c-0.769,0.037-1.546,0.061-2.32,0.019
					c-0.774-0.081-1.551-0.143-2.309-0.355c-1.511-0.373-2.998-1.033-4.168-2.096C89.489,74.176,88.577,72.813,88.279,71.301z"/>
			</g>
		</g>
		<g>
			<path fill="#F7F8F6" d="M61.254,65.736c0,0-5.829-3.178-10.598-9.009c0,0-6.359-12.452-19.076-6.888
				c0,0-9.009,10.862,1.325,22.255c0,0,5.033,11.128,23.579,3.709l4.769-2.649V65.736z"/>
			<path opacity="0.4" fill="#D9DAD9" d="M55.425,70.771c0,0-10.068-15.102-15.367-16.692c0,0-5.828-2.12-8.477,0
				c0,0-1.856,25.17,19.606,19.871l3.28-0.767L55.425,70.771z"/>
			<g>
				<path fill="#C9C8C8" d="M31.58,54.079c1.066-0.805,2.443-1.086,3.775-1.138c0.671,0.025,1.346,0.056,2,0.221
					c0.672,0.093,1.295,0.347,1.934,0.559c2.526,0.96,4.662,2.639,6.659,4.383c1.896,1.865,3.672,3.846,5.214,5.996
					c0.743,1.095,1.573,2.127,2.24,3.269c0.674,1.137,1.369,2.258,2.021,3.402c-1.579-2.117-3.05-4.293-4.719-6.32
					c-1.622-2.058-3.369-4.012-5.267-5.798c-1.915-1.752-3.991-3.369-6.364-4.399c-0.599-0.233-1.189-0.512-1.824-0.632
					c-0.314-0.067-0.622-0.183-0.943-0.211l-0.961-0.105C34.068,53.239,32.731,53.422,31.58,54.079z"/>
			</g>
			<g>
				<path fill="#C9C8C8" d="M42.177,66.001c0.887,0.711,1.801,1.367,2.714,2.009c0.924,0.626,1.854,1.237,2.834,1.747
					c0.975,0.517,1.984,0.961,3.034,1.296c1.058,0.3,2.145,0.494,3.289,0.512c-1.106,0.273-2.291,0.278-3.431,0.056
					c-1.139-0.234-2.221-0.674-3.245-1.203C45.353,69.309,43.554,67.819,42.177,66.001z"/>
			</g>
			<g>
				<path fill="#C9C8C8" d="M35.157,69.44c1.236,1.25,2.661,2.275,4.194,3.063c1.537,0.772,3.165,1.364,4.861,1.63
					c0.419,0.089,0.85,0.104,1.275,0.16l0.64,0.067l0.644,0.001c0.429-0.001,0.861,0.024,1.29,0.003
					c0.428-0.045,0.858-0.081,1.29-0.113c0.434-0.017,0.861-0.087,1.286-0.177l1.283-0.24c0.852-0.184,1.682-0.457,2.546-0.653
					c-0.802,0.354-1.618,0.7-2.449,1.007l-1.284,0.349c-0.427,0.126-0.859,0.232-1.302,0.285c-1.753,0.358-3.572,0.298-5.346,0.049
					c-1.774-0.298-3.486-0.943-5.016-1.868C37.542,72.082,36.161,70.896,35.157,69.44z"/>
			</g>
		</g>
		<path fill="#F7F8F6" d="M60.665,84.362c0,0.722-0.585,1.306-1.307,1.306c-0.721,0-1.307-0.584-1.307-1.306
			c0-0.721,0.585-1.306,1.307-1.306C60.08,83.056,60.665,83.641,60.665,84.362z"/>
		<path fill="#F7F8F6" d="M77.747,84.362c0,0.722-0.585,1.306-1.307,1.306c-0.721,0-1.306-0.584-1.306-1.306
			c0-0.721,0.584-1.306,1.306-1.306C77.162,83.056,77.747,83.641,77.747,84.362z"/>
	</g>
	<g opacity="0.7">
		<path fill="#CD8046" d="M54.63,107.069c0,1.169-0.771,2.119-1.723,2.119c-0.951,0-1.721-0.95-1.721-2.119
			c0-1.171,0.77-2.12,1.721-2.12C53.859,104.949,54.63,105.898,54.63,107.069z"/>
		<path fill="#CD8046" d="M64.433,108.128c0,0.585-0.533,1.06-1.192,1.06c-0.659,0-1.193-0.475-1.193-1.06
			c0-0.585,0.535-1.059,1.193-1.059C63.9,107.069,64.433,107.543,64.433,108.128z"/>
		<path fill="#CD8046" d="M55.955,115.15c0,0.951-0.682,1.721-1.523,1.721c-0.842,0-1.524-0.77-1.524-1.721
			c0-0.952,0.682-1.723,1.524-1.723C55.273,113.427,55.955,114.198,55.955,115.15z"/>
		<path fill="#CD8046" d="M82.45,115.15c0,1.683-1.246,3.046-2.782,3.046c-1.536,0-2.782-1.364-2.782-3.046
			c0-1.683,1.246-3.048,2.782-3.048C81.204,112.102,82.45,113.466,82.45,115.15z"/>
		<path fill="#CD8046" d="M79.668,104.287c0,0.951-0.622,1.722-1.391,1.722c-0.769,0-1.391-0.771-1.391-1.722
			c0-0.951,0.622-1.722,1.391-1.722C79.045,102.564,79.668,103.336,79.668,104.287z"/>
		<ellipse fill="#CD8046" cx="69.599" cy="110.115" rx="1.192" ry="1.987"/>
		<path fill="#CD8046" d="M86.954,109.122c0,0.548-1.009,0.993-2.252,0.993c-1.244,0-2.252-0.445-2.252-0.993
			c0-0.549,1.008-0.994,2.252-0.994C85.945,108.128,86.954,108.573,86.954,109.122z"/>
	</g>
	<g opacity="0.6">
		<path fill="#F7F8F6" d="M52.542,143.007c-0.237,1.22-2.817,1.745-5.761,1.171c-2.944-0.574-5.137-2.029-4.899-3.25
			c0.237-1.221,2.817-1.745,5.761-1.171C50.587,140.332,52.78,141.787,52.542,143.007z"/>
		<path fill="#F7F8F6" d="M95.698,146.538c0,1.174-1.068,2.127-2.386,2.127c-1.317,0-2.384-0.952-2.384-2.127
			c0-1.175,1.067-2.127,2.384-2.127C94.63,144.411,95.698,145.364,95.698,146.538z"/>
	</g>
</g>
</svg>
