<?xml version="1.0" encoding="utf-8"?>
<!-- Generator: Adobe Illustrator 24.3.0, SVG Export Plug-In . SVG Version: 6.00 Build 0)  -->
<svg version="1.1" id="Layer_1" xmlns="http://www.w3.org/2000/svg" xmlns:xlink="http://www.w3.org/1999/xlink" x="0px" y="0px"
	 viewBox="0 0 325 325" enable-background="new 0 0 325 325" xml:space="preserve">
<g id="papagan_1_">
	<g>
		<path fill="#B7426F" d="M162.267,252.795c-30.331,0-56.958-21.09-72.172-52.875c2.824,32.879,18.588,72.367,72.407,72.367
			c53.097,0,69.66-40.363,72.455-73.453C219.836,231.228,192.944,252.795,162.267,252.795z"/>
		<path fill="#D74645" d="M234.135,170.552c-15.262,31.435-41.74,52.248-71.868,52.248c-29.726,0-55.909-20.249-71.259-50.981
			c-0.976,5.281-1.426,10.738-1.426,16.259c0,3.785,0.164,7.765,0.514,11.843c15.213,31.785,41.841,52.875,72.172,52.875
			c30.677,0,57.568-21.567,72.69-53.96c0.312-3.697,0.461-7.308,0.461-10.757C235.418,182.113,235.047,176.226,234.135,170.552z"/>
		<path fill="#F3C32B" d="M162.502,121.671c-46.857,0-66.416,22.599-71.495,50.148c15.351,30.732,41.533,50.981,71.259,50.981
			c30.129,0,56.606-20.813,71.868-52.248C229.796,143.581,212.942,121.671,162.502,121.671z"/>
	</g>
	<g>
		<g>
			<g>
				<path fill="none" d="M159.758,188.529h-0.005c0.52,0.073,1.045,0.127,1.587,0.141
					C160.797,188.656,160.275,188.603,159.758,188.529z"/>
			</g>
		</g>
		<path fill="#FADC58" d="M218.009,161.224c-1.31-4.087-2.963-8.067-5.092-11.563c-2.536-4.162-4.333-8.757-5.604-13.246
			c-2.179-7.662-2.837-15.032-3.051-19.436c0-0.168,0.019-0.338,0.019-0.505c0-0.762-0.075-1.509-0.114-2.259
			c-0.017-0.9-0.003-1.445-0.003-1.445l-0.064,0.096c-1.835-21.386-19.741-38.17-41.598-38.17c-21.832,0-39.73,16.75-41.594,38.1
			l-0.02-0.026c0,0,0.003,0.123,0.003,0.312c-0.085,1.122-0.166,2.247-0.166,3.392c0,0.347,0.033,0.688,0.041,1.035
			c-0.236,4.211-0.86,10.79-2.691,17.723c-1.291,4.862-3.167,9.905-5.944,14.428c-2.017,3.297-3.613,7.041-4.894,10.901
			c-5.024,15.118-5.044,32.129-5.044,32.129c0.789,32.645,27.48,80.623,60.31,80.623c32.859,0,59.564-48.022,60.308-80.695
			C222.811,192.619,222.795,176.155,218.009,161.224z M159.752,188.529h0.005c0.517,0.073,1.039,0.127,1.581,0.141
			C160.797,188.656,160.273,188.603,159.752,188.529z"/>
	</g>
	<g>
		<g opacity="0.6">
			<g>
				<path fill="#6BBA84" d="M147.324,101.806c0,4.914-3.984,8.899-8.897,8.899c-4.915,0-8.9-3.986-8.9-8.899
					c0-4.912,3.985-8.897,8.9-8.897C143.339,92.909,147.324,96.894,147.324,101.806z"/>
			</g>
		</g>
		<g>
			<g>
				<path fill="#FFFFFF" d="M145.785,101.806c0,4.065-3.293,7.362-7.358,7.362c-4.064,0-7.36-3.296-7.36-7.362
					c0-4.063,3.296-7.355,7.36-7.355C142.492,94.452,145.785,97.744,145.785,101.806z"/>
			</g>
		</g>
		<g>
			<g>
				<path fill="#3C3C3B" d="M141.987,101.531c0,1.816-1.477,3.293-3.295,3.293c-1.811,0-3.287-1.477-3.287-3.293
					c0-1.816,1.476-3.287,3.287-3.287C140.511,98.244,141.987,99.715,141.987,101.531z"/>
			</g>
		</g>
		<path fill="#FFFFFF" d="M138.427,99.593c0,1.09-0.885,1.975-1.976,1.975c-1.09,0-1.976-0.885-1.976-1.975
			c0-1.092,0.885-1.977,1.976-1.977C137.542,97.616,138.427,98.501,138.427,99.593z"/>
	</g>
	<g>
		<g opacity="0.6">
			<g>
				<path fill="#6BBA84" d="M178.677,101.809c0,4.913,3.986,8.899,8.898,8.899c4.916,0,8.898-3.986,8.898-8.899
					c0-4.915-3.982-8.898-8.898-8.898C182.663,92.911,178.677,96.894,178.677,101.809z"/>
			</g>
		</g>
		<g>
			<g>
				<path fill="#FFFFFF" d="M180.216,101.807c0,4.065,3.292,7.361,7.358,7.361c4.065,0,7.36-3.296,7.36-7.361
					c0-4.061-3.295-7.354-7.36-7.354C183.509,94.454,180.216,97.747,180.216,101.807z"/>
			</g>
		</g>
		<g>
			<g>
				<path fill="#3C3C3B" d="M184.013,101.533c0,1.816,1.476,3.291,3.296,3.291c1.812,0,3.288-1.475,3.288-3.291
					c0-1.817-1.477-3.287-3.288-3.287C185.489,98.245,184.013,99.716,184.013,101.533z"/>
			</g>
		</g>
		<path fill="#FFFFFF" d="M187.576,99.594c0,1.09,0.885,1.975,1.974,1.975c1.093,0,1.976-0.885,1.976-1.975
			c0-1.091-0.883-1.975-1.976-1.975C188.461,97.619,187.576,98.503,187.576,99.594z"/>
	</g>
	<path fill="#6BBA84" d="M146.299,118.352c0,0-0.579-27.678,16.272-30.336c5.739-0.906,18.418,7.786,15.739,30.336
		C178.31,118.352,159.761,140.235,146.299,118.352z"/>
	<path fill="#E73C49" d="M175.366,109.594c-0.975-1.735-9.735-13.613-13.099-13.613c-4.032,0-11.813,11.358-13.101,13.613
		c-1.96,3.431-4.003,9.061-2.138,12.194l11.844,19.891c0.934,1.575,2.165,2.357,3.396,2.357c1.228,0,2.46-0.782,3.392-2.357
		l11.847-19.891C179.374,118.654,177.709,113.769,175.366,109.594z"/>
	<g>
		<g>
			<path fill="#DCD1BF" d="M138.637,269.062c0,2.346-1.901,4.252-4.249,4.252l0,0c-2.349,0-4.253-1.906-4.253-4.252v-7.672
				c0-2.347,1.904-4.253,4.253-4.253l0,0c2.347,0,4.249,1.905,4.249,4.253V269.062z"/>
			<path fill="#DCD1BF" d="M147.145,269.062c0,2.346-1.906,4.252-4.252,4.252l0,0c-2.351,0-4.256-1.906-4.256-4.252v-7.672
				c0-2.347,1.905-4.253,4.256-4.253l0,0c2.346,0,4.252,1.905,4.252,4.253V269.062z"/>
			<path fill="#DCD1BF" d="M155.65,269.062c0,2.346-1.902,4.252-4.252,4.252l0,0c-2.349,0-4.253-1.906-4.253-4.252v-7.672
				c0-2.347,1.904-4.253,4.253-4.253l0,0c2.351,0,4.252,1.905,4.252,4.253V269.062z"/>
		</g>
		<g>
			<path fill="#DCD1BF" d="M177.857,269.062c0,2.346-1.901,4.252-4.252,4.252l0,0c-2.348,0-4.252-1.906-4.252-4.252v-7.672
				c0-2.347,1.904-4.253,4.252-4.253l0,0c2.351,0,4.252,1.905,4.252,4.253V269.062z"/>
			<path fill="#DCD1BF" d="M186.362,269.062c0,2.346-1.903,4.252-4.25,4.252l0,0c-2.353,0-4.256-1.906-4.256-4.252v-7.672
				c0-2.347,1.903-4.253,4.256-4.253l0,0c2.347,0,4.25,1.905,4.25,4.253V269.062z"/>
			<path fill="#DCD1BF" d="M194.87,269.062c0,2.346-1.906,4.252-4.254,4.252l0,0c-2.348,0-4.253-1.906-4.253-4.252v-7.672
				c0-2.347,1.906-4.253,4.253-4.253l0,0c2.348,0,4.254,1.905,4.254,4.253V269.062z"/>
		</g>
	</g>
	<path fill="#8DC15F" d="M182.402,59.423c-3.176,4.039-6.129,5.916-12.936,8.95c0.325-0.352,0.729-0.796,1.248-1.384
		c5.916-6.702,6.738-12.863,6.328-15.303c-2.178,4.119-11.417,7.644-12.953,8.777c-2.416,1.647-3.53,3.225-4.538,4.708
		c-1.002,1.484-1.423,4.127-1.32,6.014c0.171,3.036,0.489,3.504,0.909,5.948c1.534-0.332,3.182,4.331,3.574,6.62
		c6.365-1.23,12.585-7.739,13.86-9.139C179.79,71.079,182.818,61.86,182.402,59.423z"/>
</g>
</svg>
